<svg width="1000" height="1000" viewBox="0 0 1000 1000" fill="none" xmlns="http://www.w3.org/2000/svg">
<g clip-path="url(#clip0_390_793)">
<rect width="1000" height="1000" fill="#01ADEF"/>
<path d="M1 518.469C14.7163 522.525 28.6517 526.483 42.109 531.679C87.585 549.238 129.505 573.246 168.018 603.095C194.918 623.944 219.45 647.313 241.853 672.998C271.466 706.948 295.978 744.213 315.948 784.51C331.659 816.213 343.834 849.264 352.929 883.455C359.86 909.511 364.675 935.983 367.699 962.746C369.097 975.118 369.321 987.623 370.038 1000.53C247.063 1001 124.126 1001 1 1001C1 840.313 1 679.625 1 518.469Z" fill="#8DD8F8"/>
<path d="M684.469 1001C686.04 974.993 687.15 948.872 690.341 923.007C694.928 885.82 703.831 849.484 715.438 813.818C733.993 756.803 759.674 703.265 792.993 653.401C811.147 626.232 831.295 600.672 853.545 576.711C887.184 540.486 924.966 509.411 967.427 484.112C978.142 477.727 989.369 472.202 1000.68 466.141C1001 644.242 1001 822.483 1001 1001C895.646 1001 790.292 1001 684.469 1001Z" fill="#8DD8F8"/>
<path d="M347.955 496.998C324.583 495.648 301.852 491.265 280.474 481.499C220.4 454.055 182.301 408.437 171.018 343.072C160.101 279.829 178.962 224.813 224.974 180.334C265.986 140.689 316.09 123.548 372.951 128.981C436.083 135.012 484.384 165.958 517.367 219.969C524.544 231.722 528.849 245.231 534.419 257.956C535.242 259.836 535.749 261.854 536.66 264.583C537.773 262.859 538.586 261.725 539.274 260.519C567.419 211.145 609.704 182.907 666.466 179.498C727.831 175.811 776.21 200.755 809.252 252.659C845.977 310.349 837.332 386.463 789.843 435.982C768.873 457.848 743.71 472.44 714.32 479.781C712.73 480.178 711.181 480.74 708.893 481.342C706.98 481.535 705.764 481.49 704.597 481.706C690.22 484.371 675.775 485.046 661.226 483.407C608.707 477.489 568.844 451.775 541.654 406.593C536.998 398.856 533.598 390.363 529.463 381.901C528.774 383.115 528.041 384.18 527.529 385.343C519.75 403.014 509.499 419.066 496.65 433.517C469.828 463.683 436.667 483.031 397.454 492.243C381.163 496.071 364.612 497.046 347.955 496.998ZM600.018 345.808C600.187 346.225 600.369 346.637 600.523 347.059C610.777 375.187 639.263 390.465 667.431 382.941C695.5 375.444 713.235 347.584 708.323 318.699C703.413 289.831 677.717 269.833 648.255 272.113C638.804 272.844 630.129 275.942 622.029 281.598C632.255 285.411 636.765 290.706 636.506 298.178C636.28 304.684 631.961 311.012 625.423 312.379C621.431 313.214 616.562 313.109 612.928 311.513C609.168 309.861 606.424 305.896 603.268 302.974C596.788 316.135 595.501 330.367 600.018 345.808ZM403.05 374.5C427.107 372.187 446.764 355.258 452.411 331.988C458.197 308.144 448.495 283.517 428.213 270.562C409.424 258.561 383.192 258.978 367.392 271.529C378.13 276.017 382.029 280.907 381.381 289.072C380.858 295.661 376.05 301.663 369.082 302.686C365.19 303.258 360.551 302.736 357.077 301.026C353.689 299.358 351.356 295.549 348.406 292.522C339.913 310.767 339.717 329.277 350.315 347.026C361.905 366.436 379.539 375.483 403.05 374.5Z" fill="#FEFFFE"/>
<path d="M348 497.3C364.545 497.061 381.071 496.086 397.337 492.261C436.49 483.055 469.6 463.722 496.38 433.579C509.21 419.138 519.445 403.098 527.212 385.44C527.723 384.278 528.455 383.213 529.143 382C533.272 390.456 536.666 398.942 541.315 406.674C568.464 451.823 608.265 477.517 660.703 483.431C675.23 485.069 689.653 484.395 704.008 481.732C705.173 481.516 706.387 481.56 708 481.473C704.141 490.151 700.215 499.037 695.518 507.494C672.326 549.248 649.398 591.159 625.446 632.475C609.038 660.778 590.935 688.096 568.958 712.532C563.892 718.165 558.063 723.168 552.244 728.055C543.09 735.742 533.404 735.721 523.347 729.452C509.341 720.722 497.961 709.089 487.114 696.911C452.929 658.526 424.028 616.196 395.848 573.376C380.169 549.55 365.218 525.243 349.957 501.142C349.243 500.014 348.706 498.775 348 497.3Z" fill="#FCC011"/>
<path d="M599.61 345.578C595.173 330.475 596.462 316.232 602.954 303.061C606.114 305.986 608.863 309.954 612.63 311.607C616.27 313.204 621.146 313.309 625.145 312.473C631.694 311.105 636.02 304.772 636.246 298.262C636.506 290.785 631.988 285.485 621.746 281.669C629.859 276.009 638.549 272.909 648.015 272.177C677.526 269.895 703.266 289.908 708.183 318.799C713.103 347.705 695.34 375.587 667.223 383.09C639.008 390.618 610.475 375.329 600.203 347.179C600.049 346.757 599.867 346.345 599.61 345.578Z" fill="#060503"/>
<path d="M402.503 373.932C379.393 374.881 361.739 365.895 350.137 346.617C339.528 328.988 339.723 310.604 348.226 292.483C351.179 295.489 353.515 299.272 356.906 300.929C360.384 302.628 365.028 303.146 368.924 302.578C375.9 301.562 380.713 295.601 381.236 289.056C381.885 280.946 377.982 276.09 367.232 271.632C383.049 259.166 409.31 258.752 428.119 270.671C448.424 283.539 458.136 307.999 452.343 331.681C446.69 354.793 427.012 371.607 402.503 373.932Z" fill="#050403"/>
</g>
<defs>
<clipPath id="clip0_390_793">
<rect width="1000" height="1000" fill="white"/>
</clipPath>
</defs>
</svg>
