<svg width="1000" height="1000" viewBox="0 0 1000 1000" fill="none" xmlns="http://www.w3.org/2000/svg">
<g clip-path="url(#clip0_390_825)">
<rect width="1000" height="1000" fill="#AF52DE"/>
<path d="M1 494.469C10.2309 495.927 19.4977 497.699 28.6858 499.813C51.7035 505.108 74.0959 512.621 95.5494 522.277C117.588 532.197 139.252 543.162 160.241 555.138C177.337 564.894 193.619 576.244 209.481 587.947C224.401 598.954 238.755 610.842 252.523 623.268C267.531 636.812 282.278 650.784 295.857 665.734C311.223 682.65 325.709 700.445 339.594 718.609C358.972 743.959 375.749 771.038 390.769 799.249C406.732 829.23 420.904 859.987 431.419 892.256C438.65 914.447 444.787 937.027 450.531 959.658C453.902 972.935 455.544 986.65 457.982 1000.58C305.736 1001 153.472 1001 1 1001C1 832.312 1 663.625 1 494.469Z" fill="#7D21AB"/>
<path d="M642.469 1001C641.973 987.416 641.821 973.83 641.968 960.248C642.047 952.954 642.319 945.632 643.065 938.381C644.47 924.73 645.818 911.045 648.049 897.516C650.444 882.998 653.104 868.446 656.952 854.263C662.545 833.65 668.364 813.002 675.836 793.022C683.155 773.451 692.045 754.391 701.362 735.662C713.952 710.354 729.073 686.456 746.5 664.186C758.854 648.399 771.618 632.853 785.206 618.128C807.739 593.712 832.97 572.23 860.06 552.949C885.138 535.099 911.415 519.204 939.428 506.503C957.856 498.148 977.003 491.376 995.849 483.947C997.211 483.41 998.742 483.302 1000.6 482.997C1001 655.581 1001 828.161 1001 1001C881.646 1001 762.292 1001 642.469 1001Z" fill="#7D21AB"/>
<path d="M389.623 522.094C383.063 523.023 376.527 524.184 369.94 524.842C314.241 530.405 264.41 515.974 220.976 480.449C196.408 460.354 178.084 435.455 165.77 406.198C156.687 384.618 151.633 362.089 151.067 338.66C149.652 280.069 170.66 230.654 213.089 190.596C237.579 167.474 266.52 151.76 299.423 144.07C362.73 129.274 420.485 141.437 471.766 181.549C503.484 206.358 524.778 238.682 536.668 277.185C537.033 278.367 537.534 279.507 538.363 281.704C539.961 278.941 541.041 277.087 542.11 275.227C566.313 233.122 601.917 205.98 649.356 195.662C702.147 184.179 750.06 195.846 791.475 230.56C824.074 257.885 842.99 293.286 847.127 335.879C852.166 387.754 835.33 431.988 798.041 468.003C772.21 492.95 740.923 507.464 705.105 511.467C695.745 512.513 686.263 512.452 676.13 512.758C672.199 512.27 668.965 511.996 665.752 511.565C610.356 504.143 568.86 476.023 541.283 427.46C537.251 420.36 534.267 412.665 530.56 404.736C529.617 406.673 528.839 408.195 528.126 409.747C506.101 457.685 470.704 491.772 421.905 511.657C411.461 515.913 400.4 518.655 389.623 522.094ZM719.231 349.516C719.055 324.235 704.842 302.466 682.164 293.645C663.189 286.265 645.087 288.512 627.353 299.738C637.883 302.829 643.095 308.733 643.01 316.768C642.933 324.069 637.786 330.536 630.418 332.589C621.798 334.99 614.927 331.497 608.624 321.246C602.342 333.414 600.435 346.046 602.816 359.167C608.202 388.853 634.755 410.234 663.205 408.124C694.929 405.771 717.923 382.057 719.231 349.516ZM439.466 302.365C419.913 277.36 375.846 270.166 360.548 289.482C369.709 292.046 374.885 297.727 375.174 305.535C375.422 312.23 370.968 318.86 364.404 321.37C359.792 323.132 354.865 323.547 350.711 320.89C346.838 318.413 343.703 314.781 340.114 311.54C330.599 332.848 331.379 353.99 345.654 373.405C359.949 392.847 379.844 400.859 403.592 396.415C446.313 388.422 465.146 339.264 439.466 302.365Z" fill="#FFFFFE"/>
<path d="M390 521.837C400.609 518.153 411.672 515.405 422.12 511.14C470.93 491.215 506.336 457.057 528.366 409.022C529.079 407.467 529.857 405.942 530.8 404C534.508 411.945 537.493 419.656 541.526 426.771C569.109 475.433 610.615 503.611 666.025 511.049C669.239 511.48 672.474 511.754 676 512.304C665.27 525.522 654.587 538.856 643.122 551.475C627.556 568.609 611.867 585.685 595.324 601.852C583.385 613.52 570.406 624.236 555.314 631.939C544.249 637.588 533.325 637.11 522.279 631.951C504.261 623.534 488.27 612.011 473.193 599.238C459.724 587.826 446.667 575.919 433.579 564.062C424.524 555.858 415.646 547.451 406.841 538.976C401.142 533.491 395.718 527.719 390 521.837Z" fill="#FCC011"/>
<path d="M719 349.621C717.703 381.768 694.787 405.501 663.17 407.856C634.817 409.968 608.354 388.569 602.986 358.86C600.614 345.728 602.514 333.086 608.774 320.907C615.056 331.167 621.903 334.663 630.495 332.259C637.837 330.205 642.967 323.733 643.044 316.426C643.128 308.384 637.934 302.475 627.44 299.382C645.114 288.146 663.154 285.898 682.065 293.284C704.666 302.112 718.831 323.899 719 349.621Z" fill="#050403"/>
<path d="M439.508 302.109C464.904 338.719 446.134 387.822 403.555 395.807C379.886 400.245 360.058 392.243 345.81 372.822C331.583 353.429 330.806 332.31 340.288 311.026C343.866 314.263 346.99 317.892 350.85 320.366C354.991 323.02 359.902 322.605 364.498 320.844C371.04 318.338 375.479 311.715 375.232 305.028C374.944 297.228 369.785 291.554 360.655 288.993C375.902 269.698 419.822 276.884 439.508 302.109Z" fill="#050403"/>
</g>
<defs>
<clipPath id="clip0_390_825">
<rect width="1000" height="1000" fill="white"/>
</clipPath>
</defs>
</svg>
