<svg width="1000" height="1000" viewBox="0 0 1000 1000" fill="none" xmlns="http://www.w3.org/2000/svg">
<g clip-path="url(#clip0_390_801)">
<rect width="1000" height="1000" fill="#FFCB05"/>
<path d="M595.469 1001C595.009 989.667 594.52 978.305 595.163 967.008C595.84 955.129 597.324 943.273 598.958 931.477C601.045 916.4 603.183 901.304 606.149 886.385C608.664 873.727 611.864 861.147 615.697 848.824C621.308 830.792 626.732 812.584 634.11 795.249C642.881 774.643 653.098 754.591 663.712 734.849C671.537 720.293 680.498 706.271 689.884 692.652C698.9 679.571 708.79 667.049 718.9 654.778C727.548 644.28 736.647 634.079 746.284 624.489C756.987 613.837 768.207 603.645 779.788 593.952C791.858 583.849 804.285 574.092 817.184 565.083C830.512 555.775 844.153 546.726 858.455 539.051C877.733 528.706 897.447 519.018 917.567 510.438C944.146 499.104 971.779 490.69 1000.59 485.002C1001 656.918 1001 828.837 1001 1001C865.979 1001 730.958 1001 595.469 1001Z" fill="#F9961E"/>
<path d="M1 430.469C2.12415 430.238 3.38572 430.224 4.35194 430.752C19.9396 439.259 35.737 447.421 50.9722 456.524C63.772 464.171 76.1716 472.565 88.2537 481.312C98.1771 488.496 107.639 496.384 116.824 504.505C127.9 514.298 138.851 524.292 149.177 534.863C172.058 558.285 193.412 583.143 211.41 610.488C227.165 634.425 242.386 658.87 255.719 684.209C274.739 720.357 290.669 758.018 301.014 797.705C307.443 822.366 313.702 847.123 318.564 872.124C321.997 889.772 323.774 907.852 324.826 925.826C326.273 950.529 326.337 975.313 326.996 1000.53C218.386 1001 109.773 1001 1 1001C1 810.979 1 620.958 1 430.469Z" fill="#F9961E"/>
<path d="M314.219 493.139C302.655 489.957 290.712 487.753 279.592 483.423C232.777 465.194 199.722 432.531 182.243 385.286C154.53 310.379 184.623 227.202 253.541 186.467C290.355 164.708 329.983 157.719 371.97 165.616C415.637 173.829 450.544 196.359 477.207 231.866C477.971 232.884 478.79 233.86 479.84 235.178C483.768 228.768 487.203 222.569 491.191 216.749C522 171.786 564.237 144.581 618.086 136.367C668.872 128.619 715.541 139.885 756.972 170.307C796.556 199.373 820.945 238.425 829.354 287.101C843.174 367.096 801.733 444.565 731.391 480.257C711.93 490.131 691.452 496.473 669.275 499C667.761 497.376 667.067 495.616 665.797 494.532C658.761 488.522 651.997 482.068 644.384 476.882C613.985 456.174 581.41 439.344 548.025 424.075C528.914 415.335 509.554 407.187 489.091 402.01C480.196 399.76 471.444 398.783 462.788 402.973C442.197 412.94 421.318 422.348 401.033 432.905C377.624 445.089 355.044 458.783 333.986 474.807C327.771 479.536 321.523 484.319 317.772 491.557C317.305 492.458 315.438 492.63 314.219 493.139ZM568.416 280.078C552.501 294.223 545.766 312.037 549.537 332.872C553.742 356.103 567.785 371.702 590.736 377.419C613.146 383.001 632.614 376.255 646.981 358.111C661.771 339.431 662.822 318.696 652.918 296.535C648.761 305.536 642.326 309.778 632.886 307.889C626.351 306.582 621.298 301.198 620.686 294.712C619.74 284.675 625.618 279.416 634.773 276.761C615.039 262.779 588.812 264.07 568.416 280.078ZM409.553 305.431C409.229 304.883 408.905 304.335 408.506 303.661C403.569 312.547 397.172 316.253 389.6 314.791C382.207 313.364 377.018 307.834 376.31 300.628C375.56 292.988 379.65 287.911 390.235 283.34C381.094 276.189 367.39 272.709 353.646 274.049C325.101 276.831 303.54 302.106 304.382 331.798C305.202 360.67 328.486 384.643 356.809 385.777C398.861 387.461 427.009 345.107 409.553 305.431Z" fill="#FFFFFE"/>
<path d="M314 493.114C315.02 492.393 316.89 492.221 317.358 491.322C321.114 484.097 327.372 479.322 333.595 474.601C354.684 458.604 377.298 444.935 400.742 432.772C421.056 422.233 441.966 412.841 462.588 402.891C471.256 398.709 480.021 399.684 488.929 401.93C509.422 407.099 528.81 415.232 547.95 423.957C581.383 439.199 614.007 456 644.45 476.672C652.075 481.85 658.849 488.292 665.896 494.292C667.167 495.374 667.862 497.131 669 498.821C667.271 508.975 660.243 515.808 654.051 522.876C645.474 532.667 636.433 542.14 626.852 550.948C610.802 565.701 594.384 580.078 577.715 594.132C563.157 606.407 548.354 618.444 533.063 629.785C521.491 638.368 509.088 645.859 496.848 653.508C489.356 658.19 482.306 655.6 475.407 651.29C458.443 640.69 443.009 628.148 427.826 615.191C404.889 595.615 383.308 574.633 362.364 553.001C351.726 542.015 341.459 530.607 331.821 518.743C326.501 512.195 322.911 504.26 318.352 497.069C317.391 495.554 315.605 494.561 314 493.114Z" fill="#F9961E"/>
<path d="M568.155 279.759C588.34 263.989 614.595 262.702 634.351 276.654C625.185 279.303 619.301 284.551 620.248 294.566C620.86 301.039 625.919 306.411 632.461 307.716C641.911 309.6 648.353 305.368 652.515 296.386C662.429 318.5 661.378 339.191 646.571 357.83C632.189 375.936 612.7 382.668 590.266 377.097C567.29 371.392 553.232 355.827 549.023 332.645C545.248 311.855 551.99 294.079 568.155 279.759Z" fill="#050403"/>
<path d="M409.781 305.949C427.186 345.303 398.915 387.634 356.68 385.951C328.233 384.818 304.847 360.857 304.024 332.001C303.178 302.325 324.833 277.064 353.503 274.282C367.307 272.943 381.071 276.421 390.253 283.569C379.621 288.137 375.513 293.212 376.266 300.848C376.977 308.049 382.189 313.577 389.615 315.003C397.22 316.464 403.644 312.761 408.603 303.879C409.003 304.552 409.329 305.1 409.781 305.949Z" fill="#050403"/>
</g>
<defs>
<clipPath id="clip0_390_801">
<rect width="1000" height="1000" fill="white"/>
</clipPath>
</defs>
</svg>
